<?xml version="1.0" encoding="UTF-8" standalone="no"?>
<!DOCTYPE svg PUBLIC "-//W3C//DTD SVG 1.1//EN"
 "http://www.w3.org/Graphics/SVG/1.1/DTD/svg11.dtd">
<!-- Generated by graphviz version 2.40.1 (20161225.0304)
 -->
<!-- Title: %0 Pages: 1 -->
<svg width="274pt" height="116pt"
 viewBox="0.00 0.00 273.73 116.00" xmlns="http://www.w3.org/2000/svg" xmlns:xlink="http://www.w3.org/1999/xlink">
<g id="graph0" class="graph" transform="scale(1 1) rotate(0) translate(4 112)">
<title>%0</title>
<polygon fill="#ffffff" stroke="transparent" points="-4,4 -4,-112 269.7293,-112 269.7293,4 -4,4"/>
<!-- /home/dramoz/dev/arty&#45;s7/projects/arty_s7_atrover/rtl/arty_s7_atrover.sv -->
<g id="node1" class="node">
<title>/home/dramoz/dev/arty&#45;s7/projects/arty_s7_atrover/rtl/arty_s7_atrover.sv</title>
<polygon fill="#d3d3d3" stroke="#069302" points="131.1978,-108 -.066,-108 -.066,-104 -4.066,-104 -4.066,-100 -.066,-100 -.066,-80 -4.066,-80 -4.066,-76 -.066,-76 -.066,-72 131.1978,-72 131.1978,-108"/>
<polyline fill="none" stroke="#069302" points="-.066,-104 3.934,-104 3.934,-100 -.066,-100 "/>
<polyline fill="none" stroke="#069302" points="-.066,-80 3.934,-80 3.934,-76 -.066,-76 "/>
<text text-anchor="middle" x="65.5659" y="-85.8" font-family="Helvetica,sans-Serif" font-size="14.00" fill="#000000">arty_s7_atrover.sv</text>
</g>
<!-- /home/dramoz/dev/arty&#45;s7/projects/arty_s7_atrover/vexriscv_generator/VexRiscvBase/rtl/VexRiscvBase.v -->
<g id="node3" class="node">
<title>/home/dramoz/dev/arty&#45;s7/projects/arty_s7_atrover/vexriscv_generator/VexRiscvBase/rtl/VexRiscvBase.v</title>
<polygon fill="#d3d3d3" stroke="#069302" points="124.1908,-36 6.941,-36 6.941,-32 2.941,-32 2.941,-28 6.941,-28 6.941,-8 2.941,-8 2.941,-4 6.941,-4 6.941,0 124.1908,0 124.1908,-36"/>
<polyline fill="none" stroke="#069302" points="6.941,-32 10.941,-32 10.941,-28 6.941,-28 "/>
<polyline fill="none" stroke="#069302" points="6.941,-8 10.941,-8 10.941,-4 6.941,-4 "/>
<text text-anchor="middle" x="65.5659" y="-13.8" font-family="Helvetica,sans-Serif" font-size="14.00" fill="#000000">VexRiscvBase.v</text>
</g>
<!-- /home/dramoz/dev/arty&#45;s7/projects/arty_s7_atrover/rtl/arty_s7_atrover.sv&#45;&gt;/home/dramoz/dev/arty&#45;s7/projects/arty_s7_atrover/vexriscv_generator/VexRiscvBase/rtl/VexRiscvBase.v -->
<g id="edge1" class="edge">
<title>/home/dramoz/dev/arty&#45;s7/projects/arty_s7_atrover/rtl/arty_s7_atrover.sv&#45;&gt;/home/dramoz/dev/arty&#45;s7/projects/arty_s7_atrover/vexriscv_generator/VexRiscvBase/rtl/VexRiscvBase.v</title>
<path fill="none" stroke="#000000" d="M65.5659,-71.8314C65.5659,-64.131 65.5659,-54.9743 65.5659,-46.4166"/>
<polygon fill="#000000" stroke="#000000" points="69.066,-46.4132 65.5659,-36.4133 62.066,-46.4133 69.066,-46.4132"/>
</g>
<!-- /home/dramoz/dev/arty&#45;s7/projects/arty_s7_atrover/rtl/vexriscv_ram.sv -->
<g id="node2" class="node">
<title>/home/dramoz/dev/arty&#45;s7/projects/arty_s7_atrover/rtl/vexriscv_ram.sv</title>
<polygon fill="#d3d3d3" stroke="#069302" points="265.8932,-108 149.2386,-108 149.2386,-104 145.2386,-104 145.2386,-100 149.2386,-100 149.2386,-80 145.2386,-80 145.2386,-76 149.2386,-76 149.2386,-72 265.8932,-72 265.8932,-108"/>
<polyline fill="none" stroke="#069302" points="149.2386,-104 153.2386,-104 153.2386,-100 149.2386,-100 "/>
<polyline fill="none" stroke="#069302" points="149.2386,-80 153.2386,-80 153.2386,-76 149.2386,-76 "/>
<text text-anchor="middle" x="207.5659" y="-85.8" font-family="Helvetica,sans-Serif" font-size="14.00" fill="#000000">vexriscv_ram.sv</text>
</g>
</g>
</svg>
