<?xml version="1.0" encoding="UTF-8" standalone="no"?>
<!DOCTYPE svg PUBLIC "-//W3C//DTD SVG 1.1//EN"
 "http://www.w3.org/Graphics/SVG/1.1/DTD/svg11.dtd">
<!-- Generated by graphviz version 2.40.1 (20161225.0304)
 -->
<!-- Title: %0 Pages: 1 -->
<svg width="879pt" height="116pt"
 viewBox="0.00 0.00 879.01 116.00" xmlns="http://www.w3.org/2000/svg" xmlns:xlink="http://www.w3.org/1999/xlink">
<g id="graph0" class="graph" transform="scale(1 1) rotate(0) translate(4 112)">
<title>%0</title>
<polygon fill="#ffffff" stroke="transparent" points="-4,4 -4,-112 875.0119,-112 875.0119,4 -4,4"/>
<!-- /home/dramoz/dev/arty&#45;s7/projects/arty_s7_atrover/rtl/arty_s7_atrover.sv -->
<g id="node1" class="node">
<title>/home/dramoz/dev/arty&#45;s7/projects/arty_s7_atrover/rtl/arty_s7_atrover.sv</title>
<polygon fill="#d3d3d3" stroke="#069302" points="481.1943,-108 349.9305,-108 349.9305,-104 345.9305,-104 345.9305,-100 349.9305,-100 349.9305,-80 345.9305,-80 345.9305,-76 349.9305,-76 349.9305,-72 481.1943,-72 481.1943,-108"/>
<polyline fill="none" stroke="#069302" points="349.9305,-104 353.9305,-104 353.9305,-100 349.9305,-100 "/>
<polyline fill="none" stroke="#069302" points="349.9305,-80 353.9305,-80 353.9305,-76 349.9305,-76 "/>
<text text-anchor="middle" x="415.5624" y="-85.8" font-family="Helvetica,sans-Serif" font-size="14.00" fill="#000000">arty_s7_atrover.sv</text>
</g>
<!-- /home/dramoz/dev/arty&#45;s7/projects/arty_s7_atrover/rtl/VexRiscvBase.v -->
<g id="node2" class="node">
<title>/home/dramoz/dev/arty&#45;s7/projects/arty_s7_atrover/rtl/VexRiscvBase.v</title>
<polygon fill="#d3d3d3" stroke="#069302" points="117.1873,-36 -.0625,-36 -.0625,-32 -4.0625,-32 -4.0625,-28 -.0625,-28 -.0625,-8 -4.0625,-8 -4.0625,-4 -.0625,-4 -.0625,0 117.1873,0 117.1873,-36"/>
<polyline fill="none" stroke="#069302" points="-.0625,-32 3.9375,-32 3.9375,-28 -.0625,-28 "/>
<polyline fill="none" stroke="#069302" points="-.0625,-8 3.9375,-8 3.9375,-4 -.0625,-4 "/>
<text text-anchor="middle" x="58.5624" y="-13.8" font-family="Helvetica,sans-Serif" font-size="14.00" fill="#000000">VexRiscvBase.v</text>
</g>
<!-- /home/dramoz/dev/arty&#45;s7/projects/arty_s7_atrover/rtl/arty_s7_atrover.sv&#45;&gt;/home/dramoz/dev/arty&#45;s7/projects/arty_s7_atrover/rtl/VexRiscvBase.v -->
<g id="edge3" class="edge">
<title>/home/dramoz/dev/arty&#45;s7/projects/arty_s7_atrover/rtl/arty_s7_atrover.sv&#45;&gt;/home/dramoz/dev/arty&#45;s7/projects/arty_s7_atrover/rtl/VexRiscvBase.v</title>
<path fill="none" stroke="#000000" d="M349.8996,-79.2844C293.2283,-69.6917 208.9916,-54.6134 127.2746,-36.3134"/>
<polygon fill="#000000" stroke="#000000" points="127.849,-32.855 117.3236,-34.0658 126.3068,-39.683 127.849,-32.855"/>
</g>
<!-- /home/dramoz/dev/arty&#45;s7/projects/arty_s7_atrover/rtl/btn_debouncer.sv -->
<g id="node3" class="node">
<title>/home/dramoz/dev/arty&#45;s7/projects/arty_s7_atrover/rtl/btn_debouncer.sv</title>
<polygon fill="#d3d3d3" stroke="#069302" points="262.3305,-36 134.7943,-36 134.7943,-32 130.7943,-32 130.7943,-28 134.7943,-28 134.7943,-8 130.7943,-8 130.7943,-4 134.7943,-4 134.7943,0 262.3305,0 262.3305,-36"/>
<polyline fill="none" stroke="#069302" points="134.7943,-32 138.7943,-32 138.7943,-28 134.7943,-28 "/>
<polyline fill="none" stroke="#069302" points="134.7943,-8 138.7943,-8 138.7943,-4 134.7943,-4 "/>
<text text-anchor="middle" x="198.5624" y="-13.8" font-family="Helvetica,sans-Serif" font-size="14.00" fill="#000000">btn_debouncer.sv</text>
</g>
<!-- /home/dramoz/dev/arty&#45;s7/projects/arty_s7_atrover/rtl/arty_s7_atrover.sv&#45;&gt;/home/dramoz/dev/arty&#45;s7/projects/arty_s7_atrover/rtl/btn_debouncer.sv -->
<g id="edge1" class="edge">
<title>/home/dramoz/dev/arty&#45;s7/projects/arty_s7_atrover/rtl/arty_s7_atrover.sv&#45;&gt;/home/dramoz/dev/arty&#45;s7/projects/arty_s7_atrover/rtl/btn_debouncer.sv</title>
<path fill="none" stroke="#000000" d="M361.0842,-71.9243C331.1611,-61.9959 293.8781,-49.6255 262.572,-39.2382"/>
<polygon fill="#000000" stroke="#000000" points="263.6564,-35.9104 253.063,-36.0831 261.452,-42.5543 263.6564,-35.9104"/>
</g>
<!-- /home/dramoz/dev/arty&#45;s7/projects/arty_s7_atrover/rtl/pwm.sv -->
<g id="node4" class="node">
<title>/home/dramoz/dev/arty&#45;s7/projects/arty_s7_atrover/rtl/pwm.sv</title>
<polygon fill="#d3d3d3" stroke="#069302" points="343.5043,-36 279.6205,-36 279.6205,-32 275.6205,-32 275.6205,-28 279.6205,-28 279.6205,-8 275.6205,-8 275.6205,-4 279.6205,-4 279.6205,0 343.5043,0 343.5043,-36"/>
<polyline fill="none" stroke="#069302" points="279.6205,-32 283.6205,-32 283.6205,-28 279.6205,-28 "/>
<polyline fill="none" stroke="#069302" points="279.6205,-8 283.6205,-8 283.6205,-4 279.6205,-4 "/>
<text text-anchor="middle" x="311.5624" y="-13.8" font-family="Helvetica,sans-Serif" font-size="14.00" fill="#000000">pwm.sv</text>
</g>
<!-- /home/dramoz/dev/arty&#45;s7/projects/arty_s7_atrover/rtl/arty_s7_atrover.sv&#45;&gt;/home/dramoz/dev/arty&#45;s7/projects/arty_s7_atrover/rtl/pwm.sv -->
<g id="edge6" class="edge">
<title>/home/dramoz/dev/arty&#45;s7/projects/arty_s7_atrover/rtl/arty_s7_atrover.sv&#45;&gt;/home/dramoz/dev/arty&#45;s7/projects/arty_s7_atrover/rtl/pwm.sv</title>
<path fill="none" stroke="#000000" d="M389.3188,-71.8314C376.2629,-62.7927 360.3089,-51.7476 346.2577,-42.0198"/>
<polygon fill="#000000" stroke="#000000" points="348.0118,-38.9773 337.7976,-36.1628 344.0273,-44.7326 348.0118,-38.9773"/>
</g>
<!-- /home/dramoz/dev/arty&#45;s7/projects/arty_s7_atrover/rtl/vexriscv_ram.v -->
<g id="node5" class="node">
<title>/home/dramoz/dev/arty&#45;s7/projects/arty_s7_atrover/rtl/vexriscv_ram.v</title>
<polygon fill="#d3d3d3" stroke="#069302" points="470.3897,-36 360.7351,-36 360.7351,-32 356.7351,-32 356.7351,-28 360.7351,-28 360.7351,-8 356.7351,-8 356.7351,-4 360.7351,-4 360.7351,0 470.3897,0 470.3897,-36"/>
<polyline fill="none" stroke="#069302" points="360.7351,-32 364.7351,-32 364.7351,-28 360.7351,-28 "/>
<polyline fill="none" stroke="#069302" points="360.7351,-8 364.7351,-8 364.7351,-4 360.7351,-4 "/>
<text text-anchor="middle" x="415.5624" y="-13.8" font-family="Helvetica,sans-Serif" font-size="14.00" fill="#000000">vexriscv_ram.v</text>
</g>
<!-- /home/dramoz/dev/arty&#45;s7/projects/arty_s7_atrover/rtl/arty_s7_atrover.sv&#45;&gt;/home/dramoz/dev/arty&#45;s7/projects/arty_s7_atrover/rtl/vexriscv_ram.v -->
<g id="edge2" class="edge">
<title>/home/dramoz/dev/arty&#45;s7/projects/arty_s7_atrover/rtl/arty_s7_atrover.sv&#45;&gt;/home/dramoz/dev/arty&#45;s7/projects/arty_s7_atrover/rtl/vexriscv_ram.v</title>
<path fill="none" stroke="#000000" d="M415.5624,-71.8314C415.5624,-64.131 415.5624,-54.9743 415.5624,-46.4166"/>
<polygon fill="#000000" stroke="#000000" points="419.0625,-46.4132 415.5624,-36.4133 412.0625,-46.4133 419.0625,-46.4132"/>
</g>
<!-- /home/dramoz/dev/arty&#45;s7/projects/arty_s7_atrover/rtl/uart_lite.sv -->
<g id="node6" class="node">
<title>/home/dramoz/dev/arty&#45;s7/projects/arty_s7_atrover/rtl/uart_lite.sv</title>
<polygon fill="#d3d3d3" stroke="#069302" points="572.239,-36 488.8858,-36 488.8858,-32 484.8858,-32 484.8858,-28 488.8858,-28 488.8858,-8 484.8858,-8 484.8858,-4 488.8858,-4 488.8858,0 572.239,0 572.239,-36"/>
<polyline fill="none" stroke="#069302" points="488.8858,-32 492.8858,-32 492.8858,-28 488.8858,-28 "/>
<polyline fill="none" stroke="#069302" points="488.8858,-8 492.8858,-8 492.8858,-4 488.8858,-4 "/>
<text text-anchor="middle" x="530.5624" y="-13.8" font-family="Helvetica,sans-Serif" font-size="14.00" fill="#000000">uart_lite.sv</text>
</g>
<!-- /home/dramoz/dev/arty&#45;s7/projects/arty_s7_atrover/rtl/arty_s7_atrover.sv&#45;&gt;/home/dramoz/dev/arty&#45;s7/projects/arty_s7_atrover/rtl/uart_lite.sv -->
<g id="edge4" class="edge">
<title>/home/dramoz/dev/arty&#45;s7/projects/arty_s7_atrover/rtl/arty_s7_atrover.sv&#45;&gt;/home/dramoz/dev/arty&#45;s7/projects/arty_s7_atrover/rtl/uart_lite.sv</title>
<path fill="none" stroke="#000000" d="M444.5818,-71.8314C459.291,-62.6221 477.3268,-51.3301 493.0746,-41.4706"/>
<polygon fill="#000000" stroke="#000000" points="494.9338,-44.436 501.5523,-36.1628 491.2191,-38.5029 494.9338,-44.436"/>
</g>
<!-- /home/dramoz/dev/arty&#45;s7/projects/arty_s7_atrover/rtl/hc_sr04_distance_sensor.sv -->
<g id="node7" class="node">
<title>/home/dramoz/dev/arty&#45;s7/projects/arty_s7_atrover/rtl/hc_sr04_distance_sensor.sv</title>
<polygon fill="#d3d3d3" stroke="#069302" points="784.4456,-36 590.6792,-36 590.6792,-32 586.6792,-32 586.6792,-28 590.6792,-28 590.6792,-8 586.6792,-8 586.6792,-4 590.6792,-4 590.6792,0 784.4456,0 784.4456,-36"/>
<polyline fill="none" stroke="#069302" points="590.6792,-32 594.6792,-32 594.6792,-28 590.6792,-28 "/>
<polyline fill="none" stroke="#069302" points="590.6792,-8 594.6792,-8 594.6792,-4 590.6792,-4 "/>
<text text-anchor="middle" x="687.5624" y="-13.8" font-family="Helvetica,sans-Serif" font-size="14.00" fill="#000000">hc_sr04_distance_sensor.sv</text>
</g>
<!-- /home/dramoz/dev/arty&#45;s7/projects/arty_s7_atrover/rtl/arty_s7_atrover.sv&#45;&gt;/home/dramoz/dev/arty&#45;s7/projects/arty_s7_atrover/rtl/hc_sr04_distance_sensor.sv -->
<g id="edge7" class="edge">
<title>/home/dramoz/dev/arty&#45;s7/projects/arty_s7_atrover/rtl/arty_s7_atrover.sv&#45;&gt;/home/dramoz/dev/arty&#45;s7/projects/arty_s7_atrover/rtl/hc_sr04_distance_sensor.sv</title>
<path fill="none" stroke="#000000" d="M481.406,-72.5708C520.0422,-62.3436 569.081,-49.3627 609.6365,-38.6274"/>
<polygon fill="#000000" stroke="#000000" points="610.7132,-41.9631 619.4846,-36.0206 608.9219,-35.1961 610.7132,-41.9631"/>
</g>
<!-- /home/dramoz/dev/arty&#45;s7/projects/arty_s7_atrover/rtl/boxcar.v -->
<g id="node8" class="node">
<title>/home/dramoz/dev/arty&#45;s7/projects/arty_s7_atrover/rtl/boxcar.v</title>
<polygon fill="#d3d3d3" stroke="#069302" points="870.9615,-36 802.1633,-36 802.1633,-32 798.1633,-32 798.1633,-28 802.1633,-28 802.1633,-8 798.1633,-8 798.1633,-4 802.1633,-4 802.1633,0 870.9615,0 870.9615,-36"/>
<polyline fill="none" stroke="#069302" points="802.1633,-32 806.1633,-32 806.1633,-28 802.1633,-28 "/>
<polyline fill="none" stroke="#069302" points="802.1633,-8 806.1633,-8 806.1633,-4 802.1633,-4 "/>
<text text-anchor="middle" x="836.5624" y="-13.8" font-family="Helvetica,sans-Serif" font-size="14.00" fill="#000000">boxcar.v</text>
</g>
<!-- /home/dramoz/dev/arty&#45;s7/projects/arty_s7_atrover/rtl/arty_s7_atrover.sv&#45;&gt;/home/dramoz/dev/arty&#45;s7/projects/arty_s7_atrover/rtl/boxcar.v -->
<g id="edge5" class="edge">
<title>/home/dramoz/dev/arty&#45;s7/projects/arty_s7_atrover/rtl/arty_s7_atrover.sv&#45;&gt;/home/dramoz/dev/arty&#45;s7/projects/arty_s7_atrover/rtl/boxcar.v</title>
<path fill="none" stroke="#000000" d="M481.135,-85.7157C555.1882,-79.7494 679.0978,-66.3593 792.2335,-36.0125"/>
<polygon fill="#000000" stroke="#000000" points="793.374,-39.3292 802.0968,-33.3157 791.5278,-32.5771 793.374,-39.3292"/>
</g>
</g>
</svg>
