<?xml version="1.0" encoding="UTF-8" standalone="no"?>
<!DOCTYPE svg PUBLIC "-//W3C//DTD SVG 1.1//EN"
 "http://www.w3.org/Graphics/SVG/1.1/DTD/svg11.dtd">
<!-- Generated by graphviz version 2.40.1 (20161225.0304)
 -->
<!-- Title: %0 Pages: 1 -->
<svg width="478pt" height="116pt"
 viewBox="0.00 0.00 478.23 116.00" xmlns="http://www.w3.org/2000/svg" xmlns:xlink="http://www.w3.org/1999/xlink">
<g id="graph0" class="graph" transform="scale(1 1) rotate(0) translate(4 112)">
<title>%0</title>
<polygon fill="#ffffff" stroke="transparent" points="-4,4 -4,-112 474.2258,-112 474.2258,4 -4,4"/>
<!-- /home/dramoz/dev/arty&#45;s7/projects/arty_s7_atrover/rtl/arty_s7_atrover.sv -->
<g id="node1" class="node">
<title>/home/dramoz/dev/arty&#45;s7/projects/arty_s7_atrover/rtl/arty_s7_atrover.sv</title>
<polygon fill="#d3d3d3" stroke="#069302" points="320.1943,-108 188.9305,-108 188.9305,-104 184.9305,-104 184.9305,-100 188.9305,-100 188.9305,-80 184.9305,-80 184.9305,-76 188.9305,-76 188.9305,-72 320.1943,-72 320.1943,-108"/>
<polyline fill="none" stroke="#069302" points="188.9305,-104 192.9305,-104 192.9305,-100 188.9305,-100 "/>
<polyline fill="none" stroke="#069302" points="188.9305,-80 192.9305,-80 192.9305,-76 188.9305,-76 "/>
<text text-anchor="middle" x="254.5624" y="-85.8" font-family="Helvetica,sans-Serif" font-size="14.00" fill="#000000">arty_s7_atrover.sv</text>
</g>
<!-- /home/dramoz/dev/arty&#45;s7/projects/arty_s7_atrover/rtl/VexRiscvBase.v -->
<g id="node2" class="node">
<title>/home/dramoz/dev/arty&#45;s7/projects/arty_s7_atrover/rtl/VexRiscvBase.v</title>
<polygon fill="#d3d3d3" stroke="#069302" points="117.1873,-36 -.0625,-36 -.0625,-32 -4.0625,-32 -4.0625,-28 -.0625,-28 -.0625,-8 -4.0625,-8 -4.0625,-4 -.0625,-4 -.0625,0 117.1873,0 117.1873,-36"/>
<polyline fill="none" stroke="#069302" points="-.0625,-32 3.9375,-32 3.9375,-28 -.0625,-28 "/>
<polyline fill="none" stroke="#069302" points="-.0625,-8 3.9375,-8 3.9375,-4 -.0625,-4 "/>
<text text-anchor="middle" x="58.5624" y="-13.8" font-family="Helvetica,sans-Serif" font-size="14.00" fill="#000000">VexRiscvBase.v</text>
</g>
<!-- /home/dramoz/dev/arty&#45;s7/projects/arty_s7_atrover/rtl/arty_s7_atrover.sv&#45;&gt;/home/dramoz/dev/arty&#45;s7/projects/arty_s7_atrover/rtl/VexRiscvBase.v -->
<g id="edge4" class="edge">
<title>/home/dramoz/dev/arty&#45;s7/projects/arty_s7_atrover/rtl/arty_s7_atrover.sv&#45;&gt;/home/dramoz/dev/arty&#45;s7/projects/arty_s7_atrover/rtl/VexRiscvBase.v</title>
<path fill="none" stroke="#000000" d="M205.3563,-71.9243C178.6785,-62.1243 145.5238,-49.945 117.4772,-39.6422"/>
<polygon fill="#000000" stroke="#000000" points="118.3823,-36.246 107.7887,-36.0831 115.9686,-42.8167 118.3823,-36.246"/>
</g>
<!-- /home/dramoz/dev/arty&#45;s7/projects/arty_s7_atrover/rtl/btn_debouncer.sv -->
<g id="node3" class="node">
<title>/home/dramoz/dev/arty&#45;s7/projects/arty_s7_atrover/rtl/btn_debouncer.sv</title>
<polygon fill="#d3d3d3" stroke="#069302" points="262.3305,-36 134.7943,-36 134.7943,-32 130.7943,-32 130.7943,-28 134.7943,-28 134.7943,-8 130.7943,-8 130.7943,-4 134.7943,-4 134.7943,0 262.3305,0 262.3305,-36"/>
<polyline fill="none" stroke="#069302" points="134.7943,-32 138.7943,-32 138.7943,-28 134.7943,-28 "/>
<polyline fill="none" stroke="#069302" points="134.7943,-8 138.7943,-8 138.7943,-4 134.7943,-4 "/>
<text text-anchor="middle" x="198.5624" y="-13.8" font-family="Helvetica,sans-Serif" font-size="14.00" fill="#000000">btn_debouncer.sv</text>
</g>
<!-- /home/dramoz/dev/arty&#45;s7/projects/arty_s7_atrover/rtl/arty_s7_atrover.sv&#45;&gt;/home/dramoz/dev/arty&#45;s7/projects/arty_s7_atrover/rtl/btn_debouncer.sv -->
<g id="edge1" class="edge">
<title>/home/dramoz/dev/arty&#45;s7/projects/arty_s7_atrover/rtl/arty_s7_atrover.sv&#45;&gt;/home/dramoz/dev/arty&#45;s7/projects/arty_s7_atrover/rtl/btn_debouncer.sv</title>
<path fill="none" stroke="#000000" d="M240.4312,-71.8314C233.9813,-63.5386 226.2179,-53.557 219.1372,-44.4533"/>
<polygon fill="#000000" stroke="#000000" points="221.786,-42.158 212.8838,-36.4133 216.2605,-46.4556 221.786,-42.158"/>
</g>
<!-- /home/dramoz/dev/arty&#45;s7/projects/arty_s7_atrover/rtl/pwm.sv -->
<g id="node5" class="node">
<title>/home/dramoz/dev/arty&#45;s7/projects/arty_s7_atrover/rtl/pwm.sv</title>
<polygon fill="#d3d3d3" stroke="#069302" points="343.5043,-36 279.6205,-36 279.6205,-32 275.6205,-32 275.6205,-28 279.6205,-28 279.6205,-8 275.6205,-8 275.6205,-4 279.6205,-4 279.6205,0 343.5043,0 343.5043,-36"/>
<polyline fill="none" stroke="#069302" points="279.6205,-32 283.6205,-32 283.6205,-28 279.6205,-28 "/>
<polyline fill="none" stroke="#069302" points="279.6205,-8 283.6205,-8 283.6205,-4 279.6205,-4 "/>
<text text-anchor="middle" x="311.5624" y="-13.8" font-family="Helvetica,sans-Serif" font-size="14.00" fill="#000000">pwm.sv</text>
</g>
<!-- /home/dramoz/dev/arty&#45;s7/projects/arty_s7_atrover/rtl/arty_s7_atrover.sv&#45;&gt;/home/dramoz/dev/arty&#45;s7/projects/arty_s7_atrover/rtl/pwm.sv -->
<g id="edge2" class="edge">
<title>/home/dramoz/dev/arty&#45;s7/projects/arty_s7_atrover/rtl/arty_s7_atrover.sv&#45;&gt;/home/dramoz/dev/arty&#45;s7/projects/arty_s7_atrover/rtl/pwm.sv</title>
<path fill="none" stroke="#000000" d="M268.9459,-71.8314C275.511,-63.5386 283.4131,-53.557 290.6202,-44.4533"/>
<polygon fill="#000000" stroke="#000000" points="293.5223,-46.4262 296.9852,-36.4133 288.034,-42.0813 293.5223,-46.4262"/>
</g>
<!-- /home/dramoz/dev/arty&#45;s7/projects/arty_s7_atrover/rtl/vexriscv_ram.v -->
<g id="node6" class="node">
<title>/home/dramoz/dev/arty&#45;s7/projects/arty_s7_atrover/rtl/vexriscv_ram.v</title>
<polygon fill="#d3d3d3" stroke="#069302" points="470.3897,-36 360.7351,-36 360.7351,-32 356.7351,-32 356.7351,-28 360.7351,-28 360.7351,-8 356.7351,-8 356.7351,-4 360.7351,-4 360.7351,0 470.3897,0 470.3897,-36"/>
<polyline fill="none" stroke="#069302" points="360.7351,-32 364.7351,-32 364.7351,-28 360.7351,-28 "/>
<polyline fill="none" stroke="#069302" points="360.7351,-8 364.7351,-8 364.7351,-4 360.7351,-4 "/>
<text text-anchor="middle" x="415.5624" y="-13.8" font-family="Helvetica,sans-Serif" font-size="14.00" fill="#000000">vexriscv_ram.v</text>
</g>
<!-- /home/dramoz/dev/arty&#45;s7/projects/arty_s7_atrover/rtl/arty_s7_atrover.sv&#45;&gt;/home/dramoz/dev/arty&#45;s7/projects/arty_s7_atrover/rtl/vexriscv_ram.v -->
<g id="edge3" class="edge">
<title>/home/dramoz/dev/arty&#45;s7/projects/arty_s7_atrover/rtl/arty_s7_atrover.sv&#45;&gt;/home/dramoz/dev/arty&#45;s7/projects/arty_s7_atrover/rtl/vexriscv_ram.v</title>
<path fill="none" stroke="#000000" d="M295.1895,-71.8314C316.7223,-62.2018 343.3473,-50.295 366.0776,-40.1299"/>
<polygon fill="#000000" stroke="#000000" points="367.5276,-43.3155 375.2274,-36.038 364.6698,-36.9254 367.5276,-43.3155"/>
</g>
<!-- /home/dramoz/dev/arty&#45;s7/projects/arty_s7_atrover/rtl/cpu_layout.v -->
<g id="node4" class="node">
<title>/home/dramoz/dev/arty&#45;s7/projects/arty_s7_atrover/rtl/cpu_layout.v</title>
<polygon fill="#d3d3d3" stroke="#069302" points="432.6467,-108 338.4781,-108 338.4781,-104 334.4781,-104 334.4781,-100 338.4781,-100 338.4781,-80 334.4781,-80 334.4781,-76 338.4781,-76 338.4781,-72 432.6467,-72 432.6467,-108"/>
<polyline fill="none" stroke="#069302" points="338.4781,-104 342.4781,-104 342.4781,-100 338.4781,-100 "/>
<polyline fill="none" stroke="#069302" points="338.4781,-80 342.4781,-80 342.4781,-76 338.4781,-76 "/>
<text text-anchor="middle" x="385.5624" y="-85.8" font-family="Helvetica,sans-Serif" font-size="14.00" fill="#000000">cpu_layout.v</text>
</g>
</g>
</svg>
