<?xml version="1.0" encoding="UTF-8" standalone="no"?>
<!DOCTYPE svg PUBLIC "-//W3C//DTD SVG 1.1//EN"
 "http://www.w3.org/Graphics/SVG/1.1/DTD/svg11.dtd">
<!-- Generated by graphviz version 2.40.1 (20161225.0304)
 -->
<!-- Title: %0 Pages: 1 -->
<svg width="580pt" height="116pt"
 viewBox="0.00 0.00 580.40 116.00" xmlns="http://www.w3.org/2000/svg" xmlns:xlink="http://www.w3.org/1999/xlink">
<g id="graph0" class="graph" transform="scale(1 1) rotate(0) translate(4 112)">
<title>%0</title>
<polygon fill="#ffffff" stroke="transparent" points="-4,4 -4,-112 576.4004,-112 576.4004,4 -4,4"/>
<!-- /home/dramoz/dev/arty&#45;s7/projects/arty_s7_atrover/rtl/arty_s7_atrover.sv -->
<g id="node1" class="node">
<title>/home/dramoz/dev/arty&#45;s7/projects/arty_s7_atrover/rtl/arty_s7_atrover.sv</title>
<polygon fill="#d3d3d3" stroke="#069302" points="377.1943,-108 245.9305,-108 245.9305,-104 241.9305,-104 241.9305,-100 245.9305,-100 245.9305,-80 241.9305,-80 241.9305,-76 245.9305,-76 245.9305,-72 377.1943,-72 377.1943,-108"/>
<polyline fill="none" stroke="#069302" points="245.9305,-104 249.9305,-104 249.9305,-100 245.9305,-100 "/>
<polyline fill="none" stroke="#069302" points="245.9305,-80 249.9305,-80 249.9305,-76 245.9305,-76 "/>
<text text-anchor="middle" x="311.5624" y="-85.8" font-family="Helvetica,sans-Serif" font-size="14.00" fill="#000000">arty_s7_atrover.sv</text>
</g>
<!-- /home/dramoz/dev/arty&#45;s7/projects/arty_s7_atrover/rtl/VexRiscvBase.v -->
<g id="node2" class="node">
<title>/home/dramoz/dev/arty&#45;s7/projects/arty_s7_atrover/rtl/VexRiscvBase.v</title>
<polygon fill="#d3d3d3" stroke="#069302" points="117.1873,-36 -.0625,-36 -.0625,-32 -4.0625,-32 -4.0625,-28 -.0625,-28 -.0625,-8 -4.0625,-8 -4.0625,-4 -.0625,-4 -.0625,0 117.1873,0 117.1873,-36"/>
<polyline fill="none" stroke="#069302" points="-.0625,-32 3.9375,-32 3.9375,-28 -.0625,-28 "/>
<polyline fill="none" stroke="#069302" points="-.0625,-8 3.9375,-8 3.9375,-4 -.0625,-4 "/>
<text text-anchor="middle" x="58.5624" y="-13.8" font-family="Helvetica,sans-Serif" font-size="14.00" fill="#000000">VexRiscvBase.v</text>
</g>
<!-- /home/dramoz/dev/arty&#45;s7/projects/arty_s7_atrover/rtl/arty_s7_atrover.sv&#45;&gt;/home/dramoz/dev/arty&#45;s7/projects/arty_s7_atrover/rtl/VexRiscvBase.v -->
<g id="edge4" class="edge">
<title>/home/dramoz/dev/arty&#45;s7/projects/arty_s7_atrover/rtl/arty_s7_atrover.sv&#45;&gt;/home/dramoz/dev/arty&#45;s7/projects/arty_s7_atrover/rtl/VexRiscvBase.v</title>
<path fill="none" stroke="#000000" d="M248.0464,-71.9243C211.2299,-61.4469 164.8573,-48.2499 127.2027,-37.534"/>
<polygon fill="#000000" stroke="#000000" points="127.9061,-34.0953 117.33,-34.7244 125.99,-40.8279 127.9061,-34.0953"/>
</g>
<!-- /home/dramoz/dev/arty&#45;s7/projects/arty_s7_atrover/rtl/btn_debouncer.sv -->
<g id="node3" class="node">
<title>/home/dramoz/dev/arty&#45;s7/projects/arty_s7_atrover/rtl/btn_debouncer.sv</title>
<polygon fill="#d3d3d3" stroke="#069302" points="262.3305,-36 134.7943,-36 134.7943,-32 130.7943,-32 130.7943,-28 134.7943,-28 134.7943,-8 130.7943,-8 130.7943,-4 134.7943,-4 134.7943,0 262.3305,0 262.3305,-36"/>
<polyline fill="none" stroke="#069302" points="134.7943,-32 138.7943,-32 138.7943,-28 134.7943,-28 "/>
<polyline fill="none" stroke="#069302" points="134.7943,-8 138.7943,-8 138.7943,-4 134.7943,-4 "/>
<text text-anchor="middle" x="198.5624" y="-13.8" font-family="Helvetica,sans-Serif" font-size="14.00" fill="#000000">btn_debouncer.sv</text>
</g>
<!-- /home/dramoz/dev/arty&#45;s7/projects/arty_s7_atrover/rtl/arty_s7_atrover.sv&#45;&gt;/home/dramoz/dev/arty&#45;s7/projects/arty_s7_atrover/rtl/btn_debouncer.sv -->
<g id="edge5" class="edge">
<title>/home/dramoz/dev/arty&#45;s7/projects/arty_s7_atrover/rtl/arty_s7_atrover.sv&#45;&gt;/home/dramoz/dev/arty&#45;s7/projects/arty_s7_atrover/rtl/btn_debouncer.sv</title>
<path fill="none" stroke="#000000" d="M283.0477,-71.8314C268.7282,-62.7074 251.2,-51.539 235.8286,-41.7449"/>
<polygon fill="#000000" stroke="#000000" points="237.3823,-38.5847 227.0679,-36.1628 233.6207,-44.4882 237.3823,-38.5847"/>
</g>
<!-- /home/dramoz/dev/arty&#45;s7/projects/arty_s7_atrover/rtl/pwm.sv -->
<g id="node4" class="node">
<title>/home/dramoz/dev/arty&#45;s7/projects/arty_s7_atrover/rtl/pwm.sv</title>
<polygon fill="#d3d3d3" stroke="#069302" points="343.5043,-36 279.6205,-36 279.6205,-32 275.6205,-32 275.6205,-28 279.6205,-28 279.6205,-8 275.6205,-8 275.6205,-4 279.6205,-4 279.6205,0 343.5043,0 343.5043,-36"/>
<polyline fill="none" stroke="#069302" points="279.6205,-32 283.6205,-32 283.6205,-28 279.6205,-28 "/>
<polyline fill="none" stroke="#069302" points="279.6205,-8 283.6205,-8 283.6205,-4 279.6205,-4 "/>
<text text-anchor="middle" x="311.5624" y="-13.8" font-family="Helvetica,sans-Serif" font-size="14.00" fill="#000000">pwm.sv</text>
</g>
<!-- /home/dramoz/dev/arty&#45;s7/projects/arty_s7_atrover/rtl/arty_s7_atrover.sv&#45;&gt;/home/dramoz/dev/arty&#45;s7/projects/arty_s7_atrover/rtl/pwm.sv -->
<g id="edge2" class="edge">
<title>/home/dramoz/dev/arty&#45;s7/projects/arty_s7_atrover/rtl/arty_s7_atrover.sv&#45;&gt;/home/dramoz/dev/arty&#45;s7/projects/arty_s7_atrover/rtl/pwm.sv</title>
<path fill="none" stroke="#000000" d="M311.5624,-71.8314C311.5624,-64.131 311.5624,-54.9743 311.5624,-46.4166"/>
<polygon fill="#000000" stroke="#000000" points="315.0625,-46.4132 311.5624,-36.4133 308.0625,-46.4133 315.0625,-46.4132"/>
</g>
<!-- /home/dramoz/dev/arty&#45;s7/projects/arty_s7_atrover/rtl/vexriscv_ram.v -->
<g id="node5" class="node">
<title>/home/dramoz/dev/arty&#45;s7/projects/arty_s7_atrover/rtl/vexriscv_ram.v</title>
<polygon fill="#d3d3d3" stroke="#069302" points="470.3897,-36 360.7351,-36 360.7351,-32 356.7351,-32 356.7351,-28 360.7351,-28 360.7351,-8 356.7351,-8 356.7351,-4 360.7351,-4 360.7351,0 470.3897,0 470.3897,-36"/>
<polyline fill="none" stroke="#069302" points="360.7351,-32 364.7351,-32 364.7351,-28 360.7351,-28 "/>
<polyline fill="none" stroke="#069302" points="360.7351,-8 364.7351,-8 364.7351,-4 360.7351,-4 "/>
<text text-anchor="middle" x="415.5624" y="-13.8" font-family="Helvetica,sans-Serif" font-size="14.00" fill="#000000">vexriscv_ram.v</text>
</g>
<!-- /home/dramoz/dev/arty&#45;s7/projects/arty_s7_atrover/rtl/arty_s7_atrover.sv&#45;&gt;/home/dramoz/dev/arty&#45;s7/projects/arty_s7_atrover/rtl/vexriscv_ram.v -->
<g id="edge1" class="edge">
<title>/home/dramoz/dev/arty&#45;s7/projects/arty_s7_atrover/rtl/arty_s7_atrover.sv&#45;&gt;/home/dramoz/dev/arty&#45;s7/projects/arty_s7_atrover/rtl/vexriscv_ram.v</title>
<path fill="none" stroke="#000000" d="M337.806,-71.8314C350.8619,-62.7927 366.8159,-51.7476 380.8671,-42.0198"/>
<polygon fill="#000000" stroke="#000000" points="383.0975,-44.7326 389.3272,-36.1628 379.113,-38.9773 383.0975,-44.7326"/>
</g>
<!-- /home/dramoz/dev/arty&#45;s7/projects/arty_s7_atrover/rtl/uart_lite.sv -->
<g id="node6" class="node">
<title>/home/dramoz/dev/arty&#45;s7/projects/arty_s7_atrover/rtl/uart_lite.sv</title>
<polygon fill="#d3d3d3" stroke="#069302" points="572.239,-36 488.8858,-36 488.8858,-32 484.8858,-32 484.8858,-28 488.8858,-28 488.8858,-8 484.8858,-8 484.8858,-4 488.8858,-4 488.8858,0 572.239,0 572.239,-36"/>
<polyline fill="none" stroke="#069302" points="488.8858,-32 492.8858,-32 492.8858,-28 488.8858,-28 "/>
<polyline fill="none" stroke="#069302" points="488.8858,-8 492.8858,-8 492.8858,-4 488.8858,-4 "/>
<text text-anchor="middle" x="530.5624" y="-13.8" font-family="Helvetica,sans-Serif" font-size="14.00" fill="#000000">uart_lite.sv</text>
</g>
<!-- /home/dramoz/dev/arty&#45;s7/projects/arty_s7_atrover/rtl/arty_s7_atrover.sv&#45;&gt;/home/dramoz/dev/arty&#45;s7/projects/arty_s7_atrover/rtl/uart_lite.sv -->
<g id="edge3" class="edge">
<title>/home/dramoz/dev/arty&#45;s7/projects/arty_s7_atrover/rtl/arty_s7_atrover.sv&#45;&gt;/home/dramoz/dev/arty&#45;s7/projects/arty_s7_atrover/rtl/uart_lite.sv</title>
<path fill="none" stroke="#000000" d="M369.2326,-71.9069C399.43,-62.3296 437.2231,-50.1832 479.2423,-36.0674"/>
<polygon fill="#000000" stroke="#000000" points="480.4882,-39.341 488.8471,-32.8311 478.253,-32.7074 480.4882,-39.341"/>
</g>
</g>
</svg>
