<?xml version="1.0" encoding="UTF-8" standalone="no"?>
<!DOCTYPE svg PUBLIC "-//W3C//DTD SVG 1.1//EN"
 "http://www.w3.org/Graphics/SVG/1.1/DTD/svg11.dtd">
<!-- Generated by graphviz version 2.40.1 (20161225.0304)
 -->
<!-- Title: %0 Pages: 1 -->
<svg width="792pt" height="116pt"
 viewBox="0.00 0.00 792.25 116.00" xmlns="http://www.w3.org/2000/svg" xmlns:xlink="http://www.w3.org/1999/xlink">
<g id="graph0" class="graph" transform="scale(1 1) rotate(0) translate(4 112)">
<title>%0</title>
<polygon fill="#ffffff" stroke="transparent" points="-4,4 -4,-112 788.2538,-112 788.2538,4 -4,4"/>
<!-- /home/dramoz/dev/arty&#45;s7/projects/arty_s7_atrover/rtl/arty_s7_atrover.sv -->
<g id="node1" class="node">
<title>/home/dramoz/dev/arty&#45;s7/projects/arty_s7_atrover/rtl/arty_s7_atrover.sv</title>
<polygon fill="#d3d3d3" stroke="#069302" points="429.1943,-108 297.9305,-108 297.9305,-104 293.9305,-104 293.9305,-100 297.9305,-100 297.9305,-80 293.9305,-80 293.9305,-76 297.9305,-76 297.9305,-72 429.1943,-72 429.1943,-108"/>
<polyline fill="none" stroke="#069302" points="297.9305,-104 301.9305,-104 301.9305,-100 297.9305,-100 "/>
<polyline fill="none" stroke="#069302" points="297.9305,-80 301.9305,-80 301.9305,-76 297.9305,-76 "/>
<text text-anchor="middle" x="363.5624" y="-85.8" font-family="Helvetica,sans-Serif" font-size="14.00" fill="#000000">arty_s7_atrover.sv</text>
</g>
<!-- /home/dramoz/dev/arty&#45;s7/projects/arty_s7_atrover/rtl/VexRiscvBase.v -->
<g id="node2" class="node">
<title>/home/dramoz/dev/arty&#45;s7/projects/arty_s7_atrover/rtl/VexRiscvBase.v</title>
<polygon fill="#d3d3d3" stroke="#069302" points="117.1873,-36 -.0625,-36 -.0625,-32 -4.0625,-32 -4.0625,-28 -.0625,-28 -.0625,-8 -4.0625,-8 -4.0625,-4 -.0625,-4 -.0625,0 117.1873,0 117.1873,-36"/>
<polyline fill="none" stroke="#069302" points="-.0625,-32 3.9375,-32 3.9375,-28 -.0625,-28 "/>
<polyline fill="none" stroke="#069302" points="-.0625,-8 3.9375,-8 3.9375,-4 -.0625,-4 "/>
<text text-anchor="middle" x="58.5624" y="-13.8" font-family="Helvetica,sans-Serif" font-size="14.00" fill="#000000">VexRiscvBase.v</text>
</g>
<!-- /home/dramoz/dev/arty&#45;s7/projects/arty_s7_atrover/rtl/arty_s7_atrover.sv&#45;&gt;/home/dramoz/dev/arty&#45;s7/projects/arty_s7_atrover/rtl/VexRiscvBase.v -->
<g id="edge2" class="edge">
<title>/home/dramoz/dev/arty&#45;s7/projects/arty_s7_atrover/rtl/arty_s7_atrover.sv&#45;&gt;/home/dramoz/dev/arty&#45;s7/projects/arty_s7_atrover/rtl/VexRiscvBase.v</title>
<path fill="none" stroke="#000000" d="M297.9896,-75.8498C252.4353,-65.8512 190.0986,-51.8371 127.0653,-36.3341"/>
<polygon fill="#000000" stroke="#000000" points="127.9022,-32.9357 117.3546,-33.9352 126.2233,-39.7314 127.9022,-32.9357"/>
</g>
<!-- /home/dramoz/dev/arty&#45;s7/projects/arty_s7_atrover/rtl/btn_debouncer.sv -->
<g id="node3" class="node">
<title>/home/dramoz/dev/arty&#45;s7/projects/arty_s7_atrover/rtl/btn_debouncer.sv</title>
<polygon fill="#d3d3d3" stroke="#069302" points="262.3305,-36 134.7943,-36 134.7943,-32 130.7943,-32 130.7943,-28 134.7943,-28 134.7943,-8 130.7943,-8 130.7943,-4 134.7943,-4 134.7943,0 262.3305,0 262.3305,-36"/>
<polyline fill="none" stroke="#069302" points="134.7943,-32 138.7943,-32 138.7943,-28 134.7943,-28 "/>
<polyline fill="none" stroke="#069302" points="134.7943,-8 138.7943,-8 138.7943,-4 134.7943,-4 "/>
<text text-anchor="middle" x="198.5624" y="-13.8" font-family="Helvetica,sans-Serif" font-size="14.00" fill="#000000">btn_debouncer.sv</text>
</g>
<!-- /home/dramoz/dev/arty&#45;s7/projects/arty_s7_atrover/rtl/arty_s7_atrover.sv&#45;&gt;/home/dramoz/dev/arty&#45;s7/projects/arty_s7_atrover/rtl/btn_debouncer.sv -->
<g id="edge4" class="edge">
<title>/home/dramoz/dev/arty&#45;s7/projects/arty_s7_atrover/rtl/arty_s7_atrover.sv&#45;&gt;/home/dramoz/dev/arty&#45;s7/projects/arty_s7_atrover/rtl/btn_debouncer.sv</title>
<path fill="none" stroke="#000000" d="M321.9259,-71.8314C299.8582,-62.2018 272.5717,-50.295 249.2767,-40.1299"/>
<polygon fill="#000000" stroke="#000000" points="250.4647,-36.8296 239.8995,-36.038 247.665,-43.2454 250.4647,-36.8296"/>
</g>
<!-- /home/dramoz/dev/arty&#45;s7/projects/arty_s7_atrover/rtl/pwm.sv -->
<g id="node4" class="node">
<title>/home/dramoz/dev/arty&#45;s7/projects/arty_s7_atrover/rtl/pwm.sv</title>
<polygon fill="#d3d3d3" stroke="#069302" points="343.5043,-36 279.6205,-36 279.6205,-32 275.6205,-32 275.6205,-28 279.6205,-28 279.6205,-8 275.6205,-8 275.6205,-4 279.6205,-4 279.6205,0 343.5043,0 343.5043,-36"/>
<polyline fill="none" stroke="#069302" points="279.6205,-32 283.6205,-32 283.6205,-28 279.6205,-28 "/>
<polyline fill="none" stroke="#069302" points="279.6205,-8 283.6205,-8 283.6205,-4 279.6205,-4 "/>
<text text-anchor="middle" x="311.5624" y="-13.8" font-family="Helvetica,sans-Serif" font-size="14.00" fill="#000000">pwm.sv</text>
</g>
<!-- /home/dramoz/dev/arty&#45;s7/projects/arty_s7_atrover/rtl/arty_s7_atrover.sv&#45;&gt;/home/dramoz/dev/arty&#45;s7/projects/arty_s7_atrover/rtl/pwm.sv -->
<g id="edge3" class="edge">
<title>/home/dramoz/dev/arty&#45;s7/projects/arty_s7_atrover/rtl/arty_s7_atrover.sv&#45;&gt;/home/dramoz/dev/arty&#45;s7/projects/arty_s7_atrover/rtl/pwm.sv</title>
<path fill="none" stroke="#000000" d="M350.4406,-71.8314C344.5125,-63.6232 337.3895,-53.7606 330.8691,-44.7323"/>
<polygon fill="#000000" stroke="#000000" points="333.5532,-42.4708 324.8609,-36.4133 327.8784,-46.5693 333.5532,-42.4708"/>
</g>
<!-- /home/dramoz/dev/arty&#45;s7/projects/arty_s7_atrover/rtl/vexriscv_ram.v -->
<g id="node5" class="node">
<title>/home/dramoz/dev/arty&#45;s7/projects/arty_s7_atrover/rtl/vexriscv_ram.v</title>
<polygon fill="#d3d3d3" stroke="#069302" points="470.3897,-36 360.7351,-36 360.7351,-32 356.7351,-32 356.7351,-28 360.7351,-28 360.7351,-8 356.7351,-8 356.7351,-4 360.7351,-4 360.7351,0 470.3897,0 470.3897,-36"/>
<polyline fill="none" stroke="#069302" points="360.7351,-32 364.7351,-32 364.7351,-28 360.7351,-28 "/>
<polyline fill="none" stroke="#069302" points="360.7351,-8 364.7351,-8 364.7351,-4 360.7351,-4 "/>
<text text-anchor="middle" x="415.5624" y="-13.8" font-family="Helvetica,sans-Serif" font-size="14.00" fill="#000000">vexriscv_ram.v</text>
</g>
<!-- /home/dramoz/dev/arty&#45;s7/projects/arty_s7_atrover/rtl/arty_s7_atrover.sv&#45;&gt;/home/dramoz/dev/arty&#45;s7/projects/arty_s7_atrover/rtl/vexriscv_ram.v -->
<g id="edge5" class="edge">
<title>/home/dramoz/dev/arty&#45;s7/projects/arty_s7_atrover/rtl/arty_s7_atrover.sv&#45;&gt;/home/dramoz/dev/arty&#45;s7/projects/arty_s7_atrover/rtl/vexriscv_ram.v</title>
<path fill="none" stroke="#000000" d="M376.6842,-71.8314C382.6123,-63.6232 389.7353,-53.7606 396.2557,-44.7323"/>
<polygon fill="#000000" stroke="#000000" points="399.2464,-46.5693 402.2639,-36.4133 393.5716,-42.4708 399.2464,-46.5693"/>
</g>
<!-- /home/dramoz/dev/arty&#45;s7/projects/arty_s7_atrover/rtl/uart_lite.sv -->
<g id="node6" class="node">
<title>/home/dramoz/dev/arty&#45;s7/projects/arty_s7_atrover/rtl/uart_lite.sv</title>
<polygon fill="#d3d3d3" stroke="#069302" points="572.239,-36 488.8858,-36 488.8858,-32 484.8858,-32 484.8858,-28 488.8858,-28 488.8858,-8 484.8858,-8 484.8858,-4 488.8858,-4 488.8858,0 572.239,0 572.239,-36"/>
<polyline fill="none" stroke="#069302" points="488.8858,-32 492.8858,-32 492.8858,-28 488.8858,-28 "/>
<polyline fill="none" stroke="#069302" points="488.8858,-8 492.8858,-8 492.8858,-4 488.8858,-4 "/>
<text text-anchor="middle" x="530.5624" y="-13.8" font-family="Helvetica,sans-Serif" font-size="14.00" fill="#000000">uart_lite.sv</text>
</g>
<!-- /home/dramoz/dev/arty&#45;s7/projects/arty_s7_atrover/rtl/arty_s7_atrover.sv&#45;&gt;/home/dramoz/dev/arty&#45;s7/projects/arty_s7_atrover/rtl/uart_lite.sv -->
<g id="edge1" class="edge">
<title>/home/dramoz/dev/arty&#45;s7/projects/arty_s7_atrover/rtl/arty_s7_atrover.sv&#45;&gt;/home/dramoz/dev/arty&#45;s7/projects/arty_s7_atrover/rtl/uart_lite.sv</title>
<path fill="none" stroke="#000000" d="M405.7036,-71.8314C428.0388,-62.2018 455.656,-50.295 479.2334,-40.1299"/>
<polygon fill="#000000" stroke="#000000" points="480.9271,-43.2112 488.7243,-36.038 478.1557,-36.7831 480.9271,-43.2112"/>
</g>
<!-- /home/dramoz/dev/arty&#45;s7/projects/arty_s7_atrover/rtl/hc_sr04_distance_sensor.sv -->
<g id="node7" class="node">
<title>/home/dramoz/dev/arty&#45;s7/projects/arty_s7_atrover/rtl/hc_sr04_distance_sensor.sv</title>
<polygon fill="#d3d3d3" stroke="#069302" points="784.4456,-36 590.6792,-36 590.6792,-32 586.6792,-32 586.6792,-28 590.6792,-28 590.6792,-8 586.6792,-8 586.6792,-4 590.6792,-4 590.6792,0 784.4456,0 784.4456,-36"/>
<polyline fill="none" stroke="#069302" points="590.6792,-32 594.6792,-32 594.6792,-28 590.6792,-28 "/>
<polyline fill="none" stroke="#069302" points="590.6792,-8 594.6792,-8 594.6792,-4 590.6792,-4 "/>
<text text-anchor="middle" x="687.5624" y="-13.8" font-family="Helvetica,sans-Serif" font-size="14.00" fill="#000000">hc_sr04_distance_sensor.sv</text>
</g>
<!-- /home/dramoz/dev/arty&#45;s7/projects/arty_s7_atrover/rtl/arty_s7_atrover.sv&#45;&gt;/home/dramoz/dev/arty&#45;s7/projects/arty_s7_atrover/rtl/hc_sr04_distance_sensor.sv -->
<g id="edge6" class="edge">
<title>/home/dramoz/dev/arty&#45;s7/projects/arty_s7_atrover/rtl/arty_s7_atrover.sv&#45;&gt;/home/dramoz/dev/arty&#45;s7/projects/arty_s7_atrover/rtl/hc_sr04_distance_sensor.sv</title>
<path fill="none" stroke="#000000" d="M429.1286,-75.4297C477.2604,-64.7338 543.2487,-50.0697 596.4966,-38.2368"/>
<polygon fill="#000000" stroke="#000000" points="597.2812,-41.648 606.2838,-36.0619 595.7626,-34.8146 597.2812,-41.648"/>
</g>
</g>
</svg>
