<?xml version="1.0" encoding="UTF-8" standalone="no"?>
<!DOCTYPE svg PUBLIC "-//W3C//DTD SVG 1.1//EN"
 "http://www.w3.org/Graphics/SVG/1.1/DTD/svg11.dtd">
<!-- Generated by graphviz version 2.40.1 (20161225.0304)
 -->
<!-- Title: state transitions Pages: 1 -->
<svg width="656pt" height="376pt"
 viewBox="0.00 0.00 656.00 376.00" xmlns="http://www.w3.org/2000/svg" xmlns:xlink="http://www.w3.org/1999/xlink">
<g id="graph0" class="graph" transform="scale(1 1) rotate(0) translate(4 372)">
<title>state transitions</title>
<polygon fill="#ffffff" stroke="transparent" points="-4,4 -4,-372 652,-372 652,4 -4,4"/>
<g id="clust1" class="cluster state regular">
<title>cluster_rx_fsm</title>
<path fill="none" stroke="#000000" stroke-width="2" d="M20,-8C20,-8 628,-8 628,-8 634,-8 640,-14 640,-20 640,-20 640,-348 640,-348 640,-354 634,-360 628,-360 628,-360 20,-360 20,-360 14,-360 8,-354 8,-348 8,-348 8,-20 8,-20 8,-14 14,-8 20,-8"/>
<text text-anchor="start" x="306.5024" y="-341.2" font-family="Helvetica,sans-Serif" font-size="12.00" fill="#000000">rx_fsm</text>
</g>
<!-- rx_fsm -->
<!-- RX_IDLE -->
<g id="node2" class="node state regular">
<title>RX_IDLE</title>
<polygon fill="#ffffff" fill-opacity="0.003922" stroke="transparent" stroke-width="2" points="458,-322 386,-322 386,-286 458,-286 458,-322"/>
<text text-anchor="start" x="396.9962" y="-300.2" font-family="Helvetica,sans-Serif" font-size="12.00" fill="#000000">RX_IDLE</text>
<path fill="none" stroke="#000000" stroke-width="2" d="M398.3333,-287C398.3333,-287 445.6667,-287 445.6667,-287 451.3333,-287 457,-292.6667 457,-298.3333 457,-298.3333 457,-309.6667 457,-309.6667 457,-315.3333 451.3333,-321 445.6667,-321 445.6667,-321 398.3333,-321 398.3333,-321 392.6667,-321 387,-315.3333 387,-309.6667 387,-309.6667 387,-298.3333 387,-298.3333 387,-292.6667 392.6667,-287 398.3333,-287"/>
</g>
<!-- RX_SAMPLING -->
<g id="node3" class="node state regular">
<title>RX_SAMPLING</title>
<polygon fill="#ffffff" fill-opacity="0.003922" stroke="transparent" stroke-width="2" points="318.5,-240 211.5,-240 211.5,-204 318.5,-204 318.5,-240"/>
<text text-anchor="start" x="222.8286" y="-218.2" font-family="Helvetica,sans-Serif" font-size="12.00" fill="#000000">RX_SAMPLING</text>
<path fill="none" stroke="#000000" stroke-width="2" d="M223.8333,-205C223.8333,-205 306.1667,-205 306.1667,-205 311.8333,-205 317.5,-210.6667 317.5,-216.3333 317.5,-216.3333 317.5,-227.6667 317.5,-227.6667 317.5,-233.3333 311.8333,-239 306.1667,-239 306.1667,-239 223.8333,-239 223.8333,-239 218.1667,-239 212.5,-233.3333 212.5,-227.6667 212.5,-227.6667 212.5,-216.3333 212.5,-216.3333 212.5,-210.6667 218.1667,-205 223.8333,-205"/>
</g>
<!-- RX_IDLE&#45;&gt;RX_SAMPLING -->
<g id="edge1" class="edge transition">
<title>RX_IDLE&#45;&gt;RX_SAMPLING</title>
<path fill="none" stroke="#000000" d="M387.1566,-285.8015C364.0062,-273.7103 333.4283,-257.7396 308.6573,-244.8019"/>
<polygon fill="#000000" stroke="#000000" points="309.9598,-241.5336 299.4756,-240.0063 306.7191,-247.7383 309.9598,-241.5336"/>
<text text-anchor="start" x="353" y="-260" font-family="Helvetica,sans-Serif" font-size="10.00" fill="#000000">rx_uart==1&#39;b0 &#160;&#160;</text>
</g>
<!-- RX_STORE_BIT_VL -->
<g id="node4" class="node state regular">
<title>RX_STORE_BIT_VL</title>
<polygon fill="#ffffff" fill-opacity="0.003922" stroke="transparent" stroke-width="2" points="331.5,-146 198.5,-146 198.5,-110 331.5,-110 331.5,-146"/>
<text text-anchor="start" x="209.823" y="-124.2" font-family="Helvetica,sans-Serif" font-size="12.00" fill="#000000">RX_STORE_BIT_VL</text>
<path fill="none" stroke="#000000" stroke-width="2" d="M210.8333,-111C210.8333,-111 319.1667,-111 319.1667,-111 324.8333,-111 330.5,-116.6667 330.5,-122.3333 330.5,-122.3333 330.5,-133.6667 330.5,-133.6667 330.5,-139.3333 324.8333,-145 319.1667,-145 319.1667,-145 210.8333,-145 210.8333,-145 205.1667,-145 199.5,-139.3333 199.5,-133.6667 199.5,-133.6667 199.5,-122.3333 199.5,-122.3333 199.5,-116.6667 205.1667,-111 210.8333,-111"/>
</g>
<!-- RX_SAMPLING&#45;&gt;RX_STORE_BIT_VL -->
<g id="edge2" class="edge transition">
<title>RX_SAMPLING&#45;&gt;RX_STORE_BIT_VL</title>
<path fill="none" stroke="#000000" d="M211.3429,-216.6703C152.4023,-210.2633 64.7008,-198.8813 54.633,-187 47.7372,-178.8621 47.7372,-171.1379 54.633,-163 63.4532,-152.5911 131.858,-142.5654 188.308,-135.9323"/>
<polygon fill="#000000" stroke="#000000" points="188.7988,-139.399 198.3312,-134.7749 187.9957,-132.4452 188.7988,-139.399"/>
<text text-anchor="start" x="54" y="-178" font-family="Helvetica,sans-Serif" font-size="10.00" fill="#000000">rx_bit_sample_cnt==(RX_SAMPLES&#45;1) &#160;&#160;</text>
<text text-anchor="start" x="54" y="-166" font-family="Helvetica,sans-Serif" font-size="10.00" fill="#000000">rx_next_sample_clks == &#39;0 &#160;&#160;</text>
</g>
<!-- RX_STORE_BIT_VL&#45;&gt;RX_SAMPLING -->
<g id="edge4" class="edge transition">
<title>RX_STORE_BIT_VL&#45;&gt;RX_SAMPLING</title>
<path fill="none" stroke="#000000" d="M265,-146.0685C265,-159.5785 265,-178.3082 265,-193.785"/>
<polygon fill="#000000" stroke="#000000" points="261.5001,-193.8758 265,-203.8759 268.5001,-193.8759 261.5001,-193.8758"/>
<text text-anchor="start" x="265" y="-178" font-family="Helvetica,sans-Serif" font-size="10.00" fill="#000000">not (rx_bit_capture_cnt==(DATA_BITS&#45;1)) &#160;&#160;</text>
<text text-anchor="start" x="265" y="-166" font-family="Helvetica,sans-Serif" font-size="10.00" fill="#000000">rx_next_sample_clks == &#39;0 &#160;&#160;</text>
</g>
<!-- RX_STOP_BIT -->
<g id="node5" class="node state regular">
<title>RX_STOP_BIT</title>
<polygon fill="#ffffff" fill-opacity="0.003922" stroke="transparent" stroke-width="2" points="436.5,-52 333.5,-52 333.5,-16 436.5,-16 436.5,-52"/>
<text text-anchor="start" x="344.8266" y="-30.2" font-family="Helvetica,sans-Serif" font-size="12.00" fill="#000000">RX_STOP_BIT</text>
<path fill="none" stroke="#000000" stroke-width="2" d="M345.8333,-17C345.8333,-17 424.1667,-17 424.1667,-17 429.8333,-17 435.5,-22.6667 435.5,-28.3333 435.5,-28.3333 435.5,-39.6667 435.5,-39.6667 435.5,-45.3333 429.8333,-51 424.1667,-51 424.1667,-51 345.8333,-51 345.8333,-51 340.1667,-51 334.5,-45.3333 334.5,-39.6667 334.5,-39.6667 334.5,-28.3333 334.5,-28.3333 334.5,-22.6667 340.1667,-17 345.8333,-17"/>
</g>
<!-- RX_STORE_BIT_VL&#45;&gt;RX_STOP_BIT -->
<g id="edge3" class="edge transition">
<title>RX_STORE_BIT_VL&#45;&gt;RX_STOP_BIT</title>
<path fill="none" stroke="#000000" d="M281.8937,-109.8615C293.8065,-97.5874 310.4776,-81.4124 326.743,-69 331.9136,-65.0542 337.5587,-61.1849 343.2342,-57.542"/>
<polygon fill="#000000" stroke="#000000" points="345.4666,-60.2756 352.1139,-52.0254 341.7726,-54.3296 345.4666,-60.2756"/>
<text text-anchor="start" x="326" y="-84" font-family="Helvetica,sans-Serif" font-size="10.00" fill="#000000">rx_bit_capture_cnt==(DATA_BITS&#45;1) &#160;&#160;</text>
<text text-anchor="start" x="326" y="-72" font-family="Helvetica,sans-Serif" font-size="10.00" fill="#000000">rx_next_sample_clks == &#39;0 &#160;&#160;</text>
</g>
<!-- RX_STOP_BIT&#45;&gt;RX_IDLE -->
<g id="edge5" class="edge transition">
<title>RX_STOP_BIT&#45;&gt;RX_IDLE</title>
<path fill="none" stroke="#000000" d="M436.6159,-45.1611C462.4641,-51.628 490.2916,-60.2112 500,-69 504.2833,-72.8776 505,-75.2222 505,-81 505,-263 505,-263 505,-263 505,-272.5992 486.9285,-282.167 467.6504,-289.6427"/>
<polygon fill="#000000" stroke="#000000" points="466.3385,-286.396 458.1636,-293.1356 468.757,-292.9649 466.3385,-286.396"/>
<text text-anchor="start" x="505" y="-172" font-family="Helvetica,sans-Serif" font-size="10.00" fill="#000000">rx_next_sample_clks == &#39;0 &#160;&#160;</text>
</g>
</g>
</svg>
