<?xml version="1.0" encoding="UTF-8" standalone="no"?>
<!DOCTYPE svg PUBLIC "-//W3C//DTD SVG 1.1//EN"
 "http://www.w3.org/Graphics/SVG/1.1/DTD/svg11.dtd">
<!-- Generated by graphviz version 2.40.1 (20161225.0304)
 -->
<!-- Title: state transitions Pages: 1 -->
<svg width="325pt" height="200pt"
 viewBox="0.00 0.00 325.00 200.00" xmlns="http://www.w3.org/2000/svg" xmlns:xlink="http://www.w3.org/1999/xlink">
<g id="graph0" class="graph" transform="scale(1 1) rotate(0) translate(4 196)">
<title>state transitions</title>
<polygon fill="#ffffff" stroke="transparent" points="-4,4 -4,-196 321,-196 321,4 -4,4"/>
<g id="clust1" class="cluster state regular">
<title>cluster_tx_fsm</title>
<path fill="none" stroke="#000000" stroke-width="2" d="M20,-8C20,-8 297,-8 297,-8 303,-8 309,-14 309,-20 309,-20 309,-172 309,-172 309,-178 303,-184 297,-184 297,-184 20,-184 20,-184 14,-184 8,-178 8,-172 8,-172 8,-20 8,-20 8,-14 14,-8 20,-8"/>
<text text-anchor="start" x="141.3324" y="-165.2" font-family="Helvetica,sans-Serif" font-size="12.00" fill="#000000">tx_fsm</text>
</g>
<!-- tx_fsm -->
<!-- TX_IDLE -->
<g id="node2" class="node state regular">
<title>TX_IDLE</title>
<polygon fill="#ffffff" fill-opacity="0.003922" stroke="transparent" stroke-width="2" points="119,-146 49,-146 49,-110 119,-110 119,-146"/>
<text text-anchor="start" x="59.6622" y="-124.2" font-family="Helvetica,sans-Serif" font-size="12.00" fill="#000000">TX_IDLE</text>
<path fill="none" stroke="#000000" stroke-width="2" d="M61.3333,-111C61.3333,-111 106.6667,-111 106.6667,-111 112.3333,-111 118,-116.6667 118,-122.3333 118,-122.3333 118,-133.6667 118,-133.6667 118,-139.3333 112.3333,-145 106.6667,-145 106.6667,-145 61.3333,-145 61.3333,-145 55.6667,-145 50,-139.3333 50,-133.6667 50,-133.6667 50,-122.3333 50,-122.3333 50,-116.6667 55.6667,-111 61.3333,-111"/>
</g>
<!-- TX_DATA_SEND -->
<g id="node3" class="node state regular">
<title>TX_DATA_SEND</title>
<polygon fill="#ffffff" fill-opacity="0.003922" stroke="transparent" stroke-width="2" points="153,-52 37,-52 37,-16 153,-16 153,-52"/>
<text text-anchor="start" x="47.9972" y="-30.2" font-family="Helvetica,sans-Serif" font-size="12.00" fill="#000000">TX_DATA_SEND</text>
<path fill="none" stroke="#000000" stroke-width="2" d="M49.3333,-17C49.3333,-17 140.6667,-17 140.6667,-17 146.3333,-17 152,-22.6667 152,-28.3333 152,-28.3333 152,-39.6667 152,-39.6667 152,-45.3333 146.3333,-51 140.6667,-51 140.6667,-51 49.3333,-51 49.3333,-51 43.6667,-51 38,-45.3333 38,-39.6667 38,-39.6667 38,-28.3333 38,-28.3333 38,-22.6667 43.6667,-17 49.3333,-17"/>
</g>
<!-- TX_IDLE&#45;&gt;TX_DATA_SEND -->
<g id="edge1" class="edge transition">
<title>TX_IDLE&#45;&gt;TX_DATA_SEND</title>
<path fill="none" stroke="#000000" d="M64.7696,-109.9513C60.6025,-104.9074 56.7786,-99.1178 54.547,-93 50.8917,-82.9792 50.1123,-78.7011 54.547,-69 56.1059,-65.5898 58.1793,-62.3848 60.5662,-59.4049"/>
<polygon fill="#000000" stroke="#000000" points="63.1759,-61.7388 67.4782,-52.0569 58.0771,-56.9426 63.1759,-61.7388"/>
<text text-anchor="start" x="54" y="-78" font-family="Helvetica,sans-Serif" font-size="10.00" fill="#000000">tx_vld &#160;&#160;</text>
</g>
<!-- TX_DATA_SEND&#45;&gt;TX_IDLE -->
<g id="edge2" class="edge transition">
<title>TX_DATA_SEND&#45;&gt;TX_IDLE</title>
<path fill="none" stroke="#000000" d="M93.8659,-52.1178C93.035,-63.8116 91.7469,-79.3363 90,-93 89.7141,-95.2359 89.3875,-97.547 89.0377,-99.8664"/>
<polygon fill="#000000" stroke="#000000" points="85.5601,-99.4462 87.4091,-109.8784 92.4693,-100.5701 85.5601,-99.4462"/>
<text text-anchor="start" x="92" y="-84" font-family="Helvetica,sans-Serif" font-size="10.00" fill="#000000">not (tx_bit_count &lt; (TOTAL_BITS&#45;1)) &#160;&#160;</text>
<text text-anchor="start" x="92" y="-72" font-family="Helvetica,sans-Serif" font-size="10.00" fill="#000000">not (tx_bit_baudrate &lt; CLKS_PER_BIT) &#160;&#160;</text>
</g>
</g>
</svg>
