<?xml version="1.0" encoding="UTF-8" standalone="no"?>
<!DOCTYPE svg PUBLIC "-//W3C//DTD SVG 1.1//EN"
 "http://www.w3.org/Graphics/SVG/1.1/DTD/svg11.dtd">
<!-- Generated by graphviz version 2.40.1 (20161225.0304)
 -->
<!-- Title: %0 Pages: 1 -->
<svg width="118pt" height="116pt"
 viewBox="0.00 0.00 118.14 116.00" xmlns="http://www.w3.org/2000/svg" xmlns:xlink="http://www.w3.org/1999/xlink">
<g id="graph0" class="graph" transform="scale(1 1) rotate(0) translate(4 112)">
<title>%0</title>
<polygon fill="#ffffff" stroke="transparent" points="-4,4 -4,-112 114.136,-112 114.136,4 -4,4"/>
<!-- /home/dramoz/dev/arty&#45;s7/rtl/arty_s7_test.sv -->
<g id="node1" class="node">
<title>/home/dramoz/dev/arty&#45;s7/rtl/arty_s7_test.sv</title>
<polygon fill="#d3d3d3" stroke="#069302" points="110.2041,-108 -.0681,-108 -.0681,-104 -4.0681,-104 -4.0681,-100 -.0681,-100 -.0681,-80 -4.0681,-80 -4.0681,-76 -.0681,-76 -.0681,-72 110.2041,-72 110.2041,-108"/>
<polyline fill="none" stroke="#069302" points="-.0681,-104 3.9319,-104 3.9319,-100 -.0681,-100 "/>
<polyline fill="none" stroke="#069302" points="-.0681,-80 3.9319,-80 3.9319,-76 -.0681,-76 "/>
<text text-anchor="middle" x="55.068" y="-85.8" font-family="Helvetica,sans-Serif" font-size="14.00" fill="#000000">arty_s7_test.sv</text>
</g>
<!-- /home/dramoz/dev/arty&#45;s7/rtl/pwm.sv -->
<g id="node2" class="node">
<title>/home/dramoz/dev/arty&#45;s7/rtl/pwm.sv</title>
<polygon fill="#d3d3d3" stroke="#069302" points="87.0099,-36 23.1261,-36 23.1261,-32 19.1261,-32 19.1261,-28 23.1261,-28 23.1261,-8 19.1261,-8 19.1261,-4 23.1261,-4 23.1261,0 87.0099,0 87.0099,-36"/>
<polyline fill="none" stroke="#069302" points="23.1261,-32 27.1261,-32 27.1261,-28 23.1261,-28 "/>
<polyline fill="none" stroke="#069302" points="23.1261,-8 27.1261,-8 27.1261,-4 23.1261,-4 "/>
<text text-anchor="middle" x="55.068" y="-13.8" font-family="Helvetica,sans-Serif" font-size="14.00" fill="#000000">pwm.sv</text>
</g>
<!-- /home/dramoz/dev/arty&#45;s7/rtl/arty_s7_test.sv&#45;&gt;/home/dramoz/dev/arty&#45;s7/rtl/pwm.sv -->
<g id="edge1" class="edge">
<title>/home/dramoz/dev/arty&#45;s7/rtl/arty_s7_test.sv&#45;&gt;/home/dramoz/dev/arty&#45;s7/rtl/pwm.sv</title>
<path fill="none" stroke="#000000" d="M55.068,-71.8314C55.068,-64.131 55.068,-54.9743 55.068,-46.4166"/>
<polygon fill="#000000" stroke="#000000" points="58.5681,-46.4132 55.068,-36.4133 51.5681,-46.4133 58.5681,-46.4132"/>
</g>
</g>
</svg>
